<svg width="36" height="32" viewBox="0 0 36 32" fill="none" xmlns="http://www.w3.org/2000/svg">
<path d="M15.9999 16.7L12.4999 20.2C12.3999 20.3 12.2832 20.35 12.1499 20.35C12.0166 20.35 11.8999 20.3 11.7999 20.2C11.6999 20.1 11.6499 19.9834 11.6499 19.85C11.6499 19.7167 11.6999 19.6 11.7999 19.5L15.2999 16L11.7999 12.5C11.6999 12.4 11.6499 12.2834 11.6499 12.15C11.6499 12.0167 11.6999 11.9 11.7999 11.8C11.8999 11.7 12.0166 11.65 12.1499 11.65C12.2832 11.65 12.3999 11.7 12.4999 11.8L15.9999 15.3L19.4999 11.8C19.5999 11.7 19.7166 11.65 19.8499 11.65C19.9832 11.65 20.0999 11.7 20.1999 11.8C20.2999 11.9 20.3499 12.0167 20.3499 12.15C20.3499 12.2834 20.2999 12.4 20.1999 12.5L16.6999 16L20.1999 19.5C20.2999 19.6 20.3499 19.7167 20.3499 19.85C20.3499 19.9834 20.2999 20.1 20.1999 20.2C20.0999 20.3 19.9832 20.35 19.8499 20.35C19.7166 20.35 19.5999 20.3 19.4999 20.2L15.9999 16.7Z" fill="#DC0A2D"/>
</svg>
